<?xml version="1.0" encoding="UTF-8" standalone="no"?>
<!-- Created with Inkscape (http://www.inkscape.org/) -->

<svg
   xmlns:dc="http://purl.org/dc/elements/1.1/"
   xmlns:cc="http://creativecommons.org/ns#"
   xmlns:rdf="http://www.w3.org/1999/02/22-rdf-syntax-ns#"
   xmlns:svg="http://www.w3.org/2000/svg"
   xmlns="http://www.w3.org/2000/svg"
   xmlns:sodipodi="http://sodipodi.sourceforge.net/DTD/sodipodi-0.dtd"
   xmlns:inkscape="http://www.inkscape.org/namespaces/inkscape"
   width="150mm"
   height="170mm"
   viewBox="0 0 150 170"
   version="1.1"
   id="svg4904"
   inkscape:version="0.92.4 (f8dce91, 2019-08-02)"
   sodipodi:docname="analizar.svg">
  <defs
     id="defs4898">
    <clipPath
       clipPathUnits="userSpaceOnUse"
       id="clipPath1571">
      <path
         d="M 0,841.89 H 595.276 V 0 H 0 Z"
         id="path1569"
         inkscape:connector-curvature="0" />
    </clipPath>
    <clipPath
       clipPathUnits="userSpaceOnUse"
       id="clipPath1645">
      <path
         d="M 0,841.89 H 595.276 V 0 H 0 Z"
         id="path1643"
         inkscape:connector-curvature="0" />
    </clipPath>
    <clipPath
       clipPathUnits="userSpaceOnUse"
       id="clipPath1709">
      <path
         d="M 0,841.89 H 595.276 V 0 H 0 Z"
         id="path1707"
         inkscape:connector-curvature="0" />
    </clipPath>
  </defs>
  <sodipodi:namedview
     id="base"
     pagecolor="#ffffff"
     bordercolor="#666666"
     borderopacity="1.0"
     inkscape:pageopacity="0.0"
     inkscape:pageshadow="2"
     inkscape:zoom="0.35"
     inkscape:cx="-110"
     inkscape:cy="560"
     inkscape:document-units="mm"
     inkscape:current-layer="layer1"
     showgrid="false"
     inkscape:window-width="1533"
     inkscape:window-height="845"
     inkscape:window-x="67"
     inkscape:window-y="27"
     inkscape:window-maximized="1" />
  <metadata
     id="metadata4901">
    <rdf:RDF>
      <cc:Work
         rdf:about="">
        <dc:format>image/svg+xml</dc:format>
        <dc:type
           rdf:resource="http://purl.org/dc/dcmitype/StillImage" />
        <dc:title></dc:title>
      </cc:Work>
    </rdf:RDF>
  </metadata>
  <g
     inkscape:label="Capa 1"
     inkscape:groupmode="layer"
     id="layer1"
     transform="translate(0,-127)">
    <g
       transform="matrix(0.35277777,0,0,-0.35277777,-28.648809,361.58924)"
       id="g1703"
       style="fill:#ffffff">
      <g
         id="g1705"
         clip-path="url(#clipPath1709)"
         style="fill:#ffffff">
        <g
           id="g1711"
           transform="translate(340.7578,594.9093)"
           style="fill:#ffffff">
          <path
             d="M 0,0 -8.081,61.05 H -78.16 l -8.08,-61.051 c -93.378,-19.89 -163.636,-102.998 -163.636,-202.218 0,-31.896 7.073,-62.495 21.022,-90.934 4.224,-8.609 14.631,-12.158 23.22,-7.941 8.606,4.222 12.16,14.616 7.941,23.22 -11.599,23.646 -17.479,49.099 -17.479,75.655 0,94.868 77.182,172.05 172.053,172.05 94.871,0 172.051,-77.182 172.051,-172.05 0,-94.871 -77.18,-172.055 -172.051,-172.055 -29.316,0 -58.254,7.5 -83.684,21.685 -8.376,4.662 -18.94,1.665 -23.608,-6.701 -4.667,-8.371 -1.668,-18.939 6.701,-23.607 30.587,-17.062 65.371,-26.082 100.591,-26.082 114.005,0 206.755,92.75 206.755,206.76 C 163.636,-102.998 93.377,-19.89 0,0"
             style="fill:#ffffff;fill-opacity:1;fill-rule:nonzero;stroke:none"
             id="path1713"
             inkscape:connector-curvature="0" />
        </g>
        <g
           id="g1715"
           transform="translate(165.1108,392.6886)"
           style="fill:#ffffff">
          <path
             d="m 0,0 c 0,73.074 59.45,132.524 132.526,132.524 73.077,0 132.527,-59.45 132.527,-132.524 0,-73.076 -59.45,-132.526 -132.527,-132.526 -22.585,0 -44.875,5.779 -64.463,16.706 -2.6,1.447 -5.884,0.526 -7.332,-2.079 -1.452,-2.601 -0.521,-5.885 2.08,-7.332 21.189,-11.828 45.296,-18.075 69.715,-18.075 79.019,0 143.307,64.287 143.307,143.306 0,79.017 -64.288,143.304 -143.307,143.304 C 53.507,143.304 -10.78,79.017 -10.78,0 c 0,-10.149 1.075,-20.25 3.181,-30.106 l -18.592,0.109 c 11.978,-6.739 25.607,-19.633 34.819,-30.654 0.202,14.364 2.645,32.966 7.689,45.751 L 2.603,-26.182 C 0.884,-17.598 0,-8.82 0,0"
             style="fill:#ffffff;fill-opacity:1;fill-rule:nonzero;stroke:none"
             id="path1717"
             inkscape:connector-curvature="0" />
        </g>
        <g
           id="g1719"
           transform="translate(289.4946,468.9865)"
           style="fill:#ffffff">
          <path
             d="m 0,0 c 13.011,1.39 26.191,-0.568 38.138,-5.658 2.742,-1.174 5.906,0.108 7.07,2.845 1.167,2.74 -0.106,5.905 -2.848,7.071 -13.632,5.814 -28.681,8.051 -43.502,6.458 -47.981,-5.121 -82.851,-48.32 -77.73,-96.304 2.479,-23.243 13.862,-44.128 32.049,-58.808 15.714,-12.684 34.881,-19.421 54.792,-19.421 3.137,0 6.292,0.169 9.458,0.505 23.243,2.479 44.128,13.859 58.808,32.049 14.684,18.19 21.401,41.007 18.922,64.244 -0.152,1.431 -0.343,2.874 -0.569,4.319 l 18.64,0.347 c -12.14,6.444 -26.079,18.999 -35.56,29.792 0.151,-14.366 -1.835,-33.022 -6.565,-45.925 l 13.194,11.405 c 0.043,-0.359 0.106,-0.722 0.144,-1.079 2.174,-20.38 -3.722,-40.386 -16.591,-56.334 -12.874,-15.948 -31.185,-25.928 -51.57,-28.102 -20.362,-2.163 -40.381,3.711 -56.331,16.591 C -56,-123.137 -65.979,-104.82 -68.155,-84.44 -72.645,-42.373 -42.07,-4.492 0,0"
             style="fill:#ffffff;fill-opacity:1;fill-rule:nonzero;stroke:none"
             id="path1721"
             inkscape:connector-curvature="0" />
        </g>
      </g>
    </g>
  </g>
</svg>
