<?xml version="1.0" encoding="UTF-8" standalone="no"?>
<!-- Created with Inkscape (http://www.inkscape.org/) -->

<svg
   xmlns:dc="http://purl.org/dc/elements/1.1/"
   xmlns:cc="http://creativecommons.org/ns#"
   xmlns:rdf="http://www.w3.org/1999/02/22-rdf-syntax-ns#"
   xmlns:svg="http://www.w3.org/2000/svg"
   xmlns="http://www.w3.org/2000/svg"
   xmlns:sodipodi="http://sodipodi.sourceforge.net/DTD/sodipodi-0.dtd"
   xmlns:inkscape="http://www.inkscape.org/namespaces/inkscape"
   width="210mm"
   height="297mm"
   viewBox="0 0 210 297"
   version="1.1"
   id="svg1810"
   inkscape:version="0.92.4 (f8dce91, 2019-08-02)"
   sodipodi:docname="anotar_blanco.svg">
  <defs
     id="defs1804">
    <clipPath
       clipPathUnits="userSpaceOnUse"
       id="clipPath1553">
      <path
         d="M 0,841.89 H 595.276 V 0 H 0 Z"
         id="path1551"
         inkscape:connector-curvature="0" />
    </clipPath>
  </defs>
  <sodipodi:namedview
     id="base"
     pagecolor="#ffffff"
     bordercolor="#666666"
     borderopacity="1.0"
     inkscape:pageopacity="0.0"
     inkscape:pageshadow="2"
     inkscape:zoom="0.35"
     inkscape:cx="-110"
     inkscape:cy="560"
     inkscape:document-units="mm"
     inkscape:current-layer="layer1"
     showgrid="false"
     inkscape:window-width="1533"
     inkscape:window-height="845"
     inkscape:window-x="67"
     inkscape:window-y="27"
     inkscape:window-maximized="1" />
  <metadata
     id="metadata1807">
    <rdf:RDF>
      <cc:Work
         rdf:about="">
        <dc:format>image/svg+xml</dc:format>
        <dc:type
           rdf:resource="http://purl.org/dc/dcmitype/StillImage" />
        <dc:title></dc:title>
      </cc:Work>
    </rdf:RDF>
  </metadata>
  <g
     inkscape:label="Capa 1"
     inkscape:groupmode="layer"
     id="layer1">
    <g
       transform="matrix(0.35277777,0,0,-0.35277777,-1.4344172,293.5535)"
       id="g1547">
      <g
         id="g1549"
         clip-path="url(#clipPath1553)">
        <g
           id="g1555"
           transform="translate(383.8105,366.1427)">
          <path
             d="m 0,0 h -172.345 v 125.499 c 0,8.809 7.141,15.95 15.95,15.95 H -15.951 C -7.142,141.449 0,134.308 0,125.499 Z M -86.151,-119.973 -172.345,-29.641 0,-29.599 Z M 120.575,27.104 c -0.263,99.152 -70.317,181.883 -163.631,201.68 l -8.078,61.031 h -70.078 l -8.078,-61.031 c -93.314,-19.798 -163.367,-102.529 -163.63,-201.68 -10e-4,-0.185 -0.008,-0.371 -0.008,-0.556 v -10e-4 -0.002 c 0,-1.876 0.029,-3.746 0.078,-5.61 0.023,-0.854 0.065,-1.703 0.098,-2.554 0.037,-0.974 0.07,-1.948 0.122,-2.918 0.059,-1.143 0.138,-2.28 0.216,-3.419 0.044,-0.637 0.084,-1.275 0.134,-1.912 0.105,-1.343 0.227,-2.683 0.357,-4.021 0.038,-0.382 0.073,-0.764 0.113,-1.145 0.158,-1.53 0.333,-3.056 0.523,-4.578 0.016,-0.12 0.031,-0.241 0.046,-0.36 1.718,-13.508 4.759,-26.725 9.108,-39.583 0.055,-0.163 0.111,-0.325 0.166,-0.488 0.475,-1.394 0.962,-2.784 1.468,-4.169 0.148,-0.406 0.303,-0.81 0.453,-1.215 0.444,-1.191 0.889,-2.383 1.356,-3.567 0.324,-0.826 0.665,-1.644 0.999,-2.464 0.325,-0.796 0.64,-1.595 0.976,-2.388 0.714,-1.69 1.452,-3.367 2.209,-5.034 0.125,-0.273 0.257,-0.546 0.383,-0.819 0.659,-1.435 1.333,-2.862 2.024,-4.279 0.066,-0.135 0.127,-0.273 0.193,-0.409 0.029,-0.057 0.064,-0.109 0.094,-0.167 18.554,-37.739 48.274,-68.99 84.854,-89.453 0.068,-0.039 0.128,-0.085 0.196,-0.122 0.195,-0.109 0.394,-0.208 0.588,-0.316 1.637,-0.907 3.286,-1.794 4.95,-2.658 0.106,-0.054 0.21,-0.112 0.317,-0.167 24.525,-12.665 51.911,-20.557 80.933,-22.47 0.429,-0.029 0.858,-0.056 1.287,-0.081 1.593,-0.096 3.191,-0.171 4.794,-0.231 0.543,-0.019 1.086,-0.046 1.63,-0.061 1.904,-0.056 3.813,-0.089 5.73,-0.092 0.12,0 0.241,-0.006 0.362,-0.006 3.565,0 7.108,0.091 10.629,0.271 109.247,5.533 196.124,95.863 196.124,206.485 v 0.002 10e-4 c 0,0.185 -0.007,0.371 -0.007,0.556"
             style="fill:#ffffff;fill-opacity:1;fill-rule:nonzero;stroke:none"
             id="path1557"
             inkscape:connector-curvature="0" />
        </g>
        <g
           id="g1559"
           transform="translate(267.3149,297.4972)">
          <path
             d="M 0,0 C 7.94,6.607 18.589,10.678 30.33,10.681 42.07,10.684 52.72,6.619 60.665,0.015 L 85.015,25.56 -24.363,25.533 Z"
             style="fill:#ffffff;fill-opacity:1;fill-rule:nonzero;stroke:none"
             id="path1561"
             inkscape:connector-curvature="0" />
        </g>
        <path
           d="m 313.536,394.935 h 43.392 V 478.8 h -43.392 z"
           style="fill:#ffffff;fill-opacity:1;fill-rule:nonzero;stroke:none"
           id="path1563"
           inkscape:connector-curvature="0" />
      </g>
    </g>
  </g>
</svg>
