<?xml version="1.0" encoding="UTF-8" standalone="no"?>
<!-- Created with Inkscape (http://www.inkscape.org/) -->

<svg
   xmlns:dc="http://purl.org/dc/elements/1.1/"
   xmlns:cc="http://creativecommons.org/ns#"
   xmlns:rdf="http://www.w3.org/1999/02/22-rdf-syntax-ns#"
   xmlns:svg="http://www.w3.org/2000/svg"
   xmlns="http://www.w3.org/2000/svg"
   xmlns:sodipodi="http://sodipodi.sourceforge.net/DTD/sodipodi-0.dtd"
   xmlns:inkscape="http://www.inkscape.org/namespaces/inkscape"
   width="150mm"
   height="170mm"
   viewBox="0 0 150 170"
   version="1.1"
   id="svg4276"
   inkscape:version="0.92.4 (f8dce91, 2019-08-02)"
   sodipodi:docname="anotar_modal.svg">
  <defs
     id="defs4270">
    <clipPath
       clipPathUnits="userSpaceOnUse"
       id="clipPath1501">
      <path
         d="M 0,841.89 H 595.276 V 0 H 0 Z"
         id="path1499"
         inkscape:connector-curvature="0" />
    </clipPath>
  </defs>
  <sodipodi:namedview
     id="base"
     pagecolor="#ffffff"
     bordercolor="#666666"
     borderopacity="1.0"
     inkscape:pageopacity="0.0"
     inkscape:pageshadow="2"
     inkscape:zoom="0.35"
     inkscape:cx="-620"
     inkscape:cy="560"
     inkscape:document-units="mm"
     inkscape:current-layer="layer1"
     showgrid="false"
     inkscape:window-width="1533"
     inkscape:window-height="845"
     inkscape:window-x="67"
     inkscape:window-y="27"
     inkscape:window-maximized="1" />
  <metadata
     id="metadata4273">
    <rdf:RDF>
      <cc:Work
         rdf:about="">
        <dc:format>image/svg+xml</dc:format>
        <dc:type
           rdf:resource="http://purl.org/dc/dcmitype/StillImage" />
        <dc:title></dc:title>
      </cc:Work>
    </rdf:RDF>
  </metadata>
  <g
     inkscape:label="Capa 1"
     inkscape:groupmode="layer"
     id="layer1"
     transform="translate(0,-127)">
    <g
       transform="matrix(0.35277777,0,0,-0.35277777,-30.916666,360.83329)"
       id="g1495"
       style="fill:#293333;fill-opacity:1">
      <g
         id="g1497"
         clip-path="url(#clipPath1501)"
         style="fill:#293333;fill-opacity:1">
        <g
           id="g1503"
           transform="translate(340.7568,594.9083)"
           style="fill:#293333;fill-opacity:1">
          <path
             d="m 0,0 -8.08,61.05 h -70.079 l -8.08,-61.051 c -93.377,-19.89 -163.635,-102.998 -163.635,-202.217 0,-31.896 7.074,-62.495 21.022,-90.934 4.225,-8.609 14.631,-12.158 23.22,-7.94 8.606,4.222 12.16,14.616 7.941,23.22 -11.599,23.646 -17.478,49.099 -17.478,75.654 0,94.868 77.181,172.05 172.051,172.05 94.87,0 172.05,-77.182 172.05,-172.05 0,-94.87 -77.18,-172.054 -172.05,-172.054 -29.316,0 -58.254,7.5 -83.684,21.685 -8.376,4.662 -18.94,1.666 -23.607,-6.7 -4.667,-8.371 -1.668,-18.941 6.701,-23.608 30.586,-17.062 65.37,-26.082 100.59,-26.082 114.004,0 206.754,92.75 206.754,206.759 C 163.636,-102.998 93.377,-19.89 0,0"
             style="fill:#293333;fill-opacity:1;fill-rule:nonzero;stroke:none"
             id="path1505"
             inkscape:connector-curvature="0" />
        </g>
        <g
           id="g1507"
           transform="translate(297.6431,310.2013)"
           style="fill:#293333;fill-opacity:1">
          <path
             d="M 0,0 C -9.073,-0.003 -17.302,-3.147 -23.438,-8.254 L -42.265,11.478 42.259,11.497 23.442,-8.242 C 17.303,-3.14 9.073,0.002 0,0 M -66.598,21.889 0.012,-47.919 66.587,21.92 Z"
             style="fill:#293333;fill-opacity:1;fill-rule:nonzero;stroke:none"
             id="path1509"
             inkscape:connector-curvature="0" />
        </g>
        <path
           d="m 343.456,377.245 h -33.532 v 64.809 h 33.532 z m 8.448,87.059 H 243.372 c -6.808,0 -12.327,-5.519 -12.327,-12.326 V 354.994 H 364.23 v 96.984 c 0,6.807 -5.519,12.326 -12.326,12.326"
           style="fill:#293333;fill-opacity:1;fill-rule:nonzero;stroke:none"
           id="path1511"
           inkscape:connector-curvature="0" />
      </g>
    </g>
  </g>
</svg>
