<svg xmlns="http://www.w3.org/2000/svg" width="40" height="40" viewBox="0 0 40 40">
    <g fill="#FFF" fill-rule="nonzero">
        <path d="M32.25 4.5h-1.5V2h-2.5v2.5h-16.5V2h-2.5v2.5h-1.5A3.754 3.754 0 0 0 4 8.25v22A3.754 3.754 0 0 0 7.75 34h24.5A3.754 3.754 0 0 0 36 30.25v-22a3.754 3.754 0 0 0-3.75-3.75zm1.25 25.75c0 .69-.56 1.25-1.25 1.25H7.75c-.69 0-1.25-.56-1.25-1.25v-16.5h27v16.5zm0-19h-27v-3C6.5 7.56 7.06 7 7.75 7h1.5v2.5h2.5V7h16.5v2.5h2.5V7h1.5c.69 0 1.25.56 1.25 1.25v3z"/>
        <path d="M8.75 16.375h2.5v2.5h-2.5zM13.75 16.375h2.5v2.5h-2.5zM18.75 16.375h2.5v2.5h-2.5zM23.75 16.375h2.5v2.5h-2.5zM28.75 16.375h2.5v2.5h-2.5zM8.75 21.375h2.5v2.5h-2.5zM13.75 21.375h2.5v2.5h-2.5zM18.75 21.375h2.5v2.5h-2.5zM23.75 21.375h2.5v2.5h-2.5zM8.75 26.375h2.5v2.5h-2.5zM13.75 26.375h2.5v2.5h-2.5zM18.75 26.375h2.5v2.5h-2.5zM23.75 26.375h2.5v2.5h-2.5zM28.75 21.375h2.5v2.5h-2.5z"/>
    </g>
</svg>
