<?xml version="1.0" encoding="UTF-8" standalone="no"?>
<svg
   xmlns:dc="http://purl.org/dc/elements/1.1/"
   xmlns:cc="http://creativecommons.org/ns#"
   xmlns:rdf="http://www.w3.org/1999/02/22-rdf-syntax-ns#"
   xmlns:svg="http://www.w3.org/2000/svg"
   xmlns="http://www.w3.org/2000/svg"
   xmlns:sodipodi="http://sodipodi.sourceforge.net/DTD/sodipodi-0.dtd"
   xmlns:inkscape="http://www.inkscape.org/namespaces/inkscape"
   id="Layer_1"
   enable-background="new 0 0 511.538 511.538"
   height="692"
   viewBox="0 0 691.37558 691.37558"
   width="692"
   version="1.1"
   sodipodi:docname="eliminadoParticipante.svg"
   inkscape:version="0.92.4 (f8dce91, 2019-08-02)">
  <metadata
     id="metadata17">
    <rdf:RDF>
      <cc:Work
         rdf:about="">
        <dc:format>image/svg+xml</dc:format>
        <dc:type
           rdf:resource="http://purl.org/dc/dcmitype/StillImage" />
        <dc:title></dc:title>
      </cc:Work>
    </rdf:RDF>
  </metadata>
  <defs
     id="defs15" />
  <sodipodi:namedview
     pagecolor="#ffffff"
     bordercolor="#666666"
     borderopacity="1"
     objecttolerance="10"
     gridtolerance="10"
     guidetolerance="10"
     inkscape:pageopacity="0"
     inkscape:pageshadow="2"
     inkscape:window-width="1533"
     inkscape:window-height="845"
     id="namedview13"
     showgrid="false"
     inkscape:zoom="0.4609375"
     inkscape:cx="256"
     inkscape:cy="256"
     inkscape:window-x="67"
     inkscape:window-y="27"
     inkscape:window-maximized="1"
     inkscape:current-layer="Layer_1" />
  <path
     d="m 444.69929,190.73976 h 85.333 c 11.598,0 21,-9.402 21,-21 0,-11.598 -9.402,-21 -21,-21 h -85.333 c -11.598,0 -21,9.402 -21,21 0,11.598 9.403,21 21,21 z"
     id="path2"
     inkscape:connector-curvature="0"
     style="fill:#ffffff" />
  <circle
     cx="274.03229"
     cy="276.40576"
     r="106.667"
     id="circle4"
     style="fill:#ffffff" />
  <path
     d="m 465.53229,532.40576 c 0,-56.292 -24.081,-107.074 -63.12,-142.165 -8.986,-8.078 -22.534,-8.388 -31.72,-0.538 -55.712,47.607 -137.593,47.619 -193.319,0.003 -9.173,-7.838 -22.733,-7.595 -31.688,0.492 -38.834,35.075 -63.289002,85.783 -63.319002,142.105 -0.006,11.606 9.394,21.103 21.000002,21.103 h 341.167 c 11.564,0 20.999,-9.369 20.999,-21 z"
     id="path6"
     inkscape:connector-curvature="0"
     style="fill:#ffffff" />
  <path
     d="m 553.89129,422.22576 c -11.623,9.467 -25.294,16.512 -40.235,20.357 -11.435,2.943 -18.2,14.704 -14.983,26.066 9.954,35.153 8.859,64.731 8.859,63.757 0,11.598 9.402,21 21,21 h 44.17 c 11.598,0 21,-9.402 21,-21 0,-65.424 2.046,-78.159 -6.899,-101.671 -5.091,-13.382 -21.811,-17.551 -32.912,-8.509 z"
     id="path8"
     inkscape:connector-curvature="0"
     style="fill:#ffffff" />
  <circle
     cx="487.3663"
     cy="340.40576"
     r="64"
     id="circle10"
     style="fill:#ffffff" />
</svg>
