<?xml version="1.0" encoding="iso-8859-1"?>
<!-- Generator: Adobe Illustrator 19.1.0, SVG Export Plug-In . SVG Version: 6.00 Build 0)  -->
<svg version="1.1" id="Capa_1" xmlns="http://www.w3.org/2000/svg" xmlns:xlink="http://www.w3.org/1999/xlink" x="0px" y="0px"
	 viewBox="0 0 488.2 488.2" style="enable-background:new 0 0 488.2 488.2;" xml:space="preserve">
<g>
	<g>
		<g>
			<path d="M165.55,324.7c-6.3-9.1-9.7-20-9.7-31.4v-16c-11.8-10-22-21.9-30-35.3h30v-6.9c0-9.6,1.7-18.8,4.7-27.3h-49.2
				c-3.2-11.7-4.8-23.8-4.8-35.9c0-12.3,1.6-24.4,4.8-36.2h50.2c-1.7,12.6-2.5,25.3-2.5,38c0,10.9,0.6,21.9,1.9,32.8
				c6.2-16.6,17.7-30.6,32.4-40c0.3-10.3,1.2-20.5,2.7-30.7h96c1.4,10.2,2.2,20.5,2.3,30.8c14.4,9.4,25.7,23.1,31.9,39.4
				c1.5-11.9,2.2-23.9,2.2-35.8c0-11.4-0.7-23-2.1-34.4h50.6c3.2,11.8,4.8,23.9,4.8,36.2c0,12.2-1.6,24.3-4.8,35.9h-50.2
				c3,8.6,4.7,17.8,4.7,27.3v6.8h31c-8.2,13.9-18.8,26.1-31,36.2v15.2c0,11.7-3.7,23-10.3,32.2c16.2-8.2,31.1-18.9,44.3-32.1
				c32.5-32.5,50.3-75.6,50.3-121.5s-17.9-89.1-50.3-121.5c-32-32.7-75.2-50.5-121.1-50.5s-89.1,17.9-121.5,50.3
				c-32.5,32.5-50.4,75.6-50.4,121.6c0,45.9,17.9,89.1,50.3,121.5C135.55,306.2,149.95,316.7,165.55,324.7z M362.75,101.5h-42.3
				c-4.7-19.1-11.4-37.7-19.9-55.4C326.35,57.7,348.15,77.1,362.75,101.5z M235.25,34.4c6.5-0.4,13.1-0.4,19.8,0.1
				c13.3,20.8,23.4,43.3,30,67h-81.3C210.85,77.8,221.45,55.2,235.25,34.4z M189.35,45.6c-8.9,17.9-16,36.6-21,55.9h-42.4
				C140.75,76.7,162.95,57.1,189.35,45.6z"/>
		</g>
		<g>
			<path d="M374.95,426.6c-36-29.6-74.9-49.2-82.8-53.1c-0.9-0.4-1.5-1.3-1.5-2.3v-56.1c7.1-4.7,11.7-12.7,11.7-21.8v-58.2
				c0-28.9-23.5-52.4-52.4-52.4h-6.3h-6.3c-28.9,0-52.4,23.5-52.4,52.4v58.1c0,9.1,4.7,17.1,11.7,21.8v56.1c0,1-0.6,1.9-1.5,2.3
				c-7.9,3.9-46.7,23.5-82.8,53.1c-6.5,5.3-10.2,13.4-10.2,21.8v39.9h141.4h141.4v-39.9C385.25,440,381.55,432,374.95,426.6z"/>
		</g>
	</g>
</g>
<g>
</g>
<g>
</g>
<g>
</g>
<g>
</g>
<g>
</g>
<g>
</g>
<g>
</g>
<g>
</g>
<g>
</g>
<g>
</g>
<g>
</g>
<g>
</g>
<g>
</g>
<g>
</g>
<g>
</g>
</svg>
