<?xml version="1.0" encoding="UTF-8" standalone="no"?>
<svg
   xmlns:dc="http://purl.org/dc/elements/1.1/"
   xmlns:cc="http://creativecommons.org/ns#"
   xmlns:rdf="http://www.w3.org/1999/02/22-rdf-syntax-ns#"
   xmlns:svg="http://www.w3.org/2000/svg"
   xmlns="http://www.w3.org/2000/svg"
   xmlns:sodipodi="http://sodipodi.sourceforge.net/DTD/sodipodi-0.dtd"
   xmlns:inkscape="http://www.inkscape.org/namespaces/inkscape"
   sodipodi:docname="icono-mmp.svg"
   inkscape:version="1.0beta1 (32d4812, 2019-09-19)"
   id="svg1349"
   version="1.1"
   viewBox="0 0 210 297"
   height="297mm"
   width="210mm">
  <defs
     id="defs1343">
    <clipPath
       id="clipPath630"
       clipPathUnits="userSpaceOnUse">
      <path
         inkscape:connector-curvature="0"
         id="path628"
         d="M 0,841.89 H 595.276 V 0 H 0 Z" />
    </clipPath>
  </defs>
  <sodipodi:namedview
     inkscape:window-maximized="0"
     inkscape:window-y="23"
     inkscape:window-x="0"
     inkscape:window-height="1009"
     inkscape:window-width="1600"
     showgrid="false"
     inkscape:document-rotation="0"
     inkscape:current-layer="layer1"
     inkscape:document-units="mm"
     inkscape:cy="560"
     inkscape:cx="400"
     inkscape:zoom="0.35"
     inkscape:pageshadow="2"
     inkscape:pageopacity="0.0"
     borderopacity="1.0"
     bordercolor="#666666"
     pagecolor="#ffffff"
     id="base" />
  <metadata
     id="metadata1346">
    <rdf:RDF>
      <cc:Work
         rdf:about="">
        <dc:format>image/svg+xml</dc:format>
        <dc:type
           rdf:resource="http://purl.org/dc/dcmitype/StillImage" />
        <dc:title></dc:title>
      </cc:Work>
    </rdf:RDF>
  </metadata>
  <g
     id="layer1"
     inkscape:groupmode="layer"
     inkscape:label="Capa 1">
    <g
       transform="matrix(0.50934996,0,0,-0.50934996,28.922511,358.4172)"
       id="g624">
      <g
         clip-path="url(#clipPath630)"
         id="g626">
        <g
           transform="translate(155.8784,268.8585)"
           id="g632">
          <path
             inkscape:connector-curvature="0"
             id="path634"
             style="fill:#1792a4;fill-opacity:1;fill-rule:nonzero;stroke:none"
             d="m 0,0 c -22.792,0 -45.302,5.837 -65.096,16.879 -5.416,3.019 -7.357,9.859 -4.336,15.277 3.02,5.414 9.857,7.354 15.277,4.336 16.457,-9.18 35.184,-14.033 54.155,-14.033 61.394,0 111.34,49.948 111.34,111.343 0,61.392 -49.946,111.34 -111.34,111.34 -61.394,0 -111.341,-49.948 -111.341,-111.34 0,-17.186 3.805,-33.656 11.31,-48.959 2.731,-5.568 0.431,-12.294 -5.138,-15.027 -5.559,-2.729 -12.293,-0.432 -15.027,5.139 -9.026,18.404 -13.604,38.205 -13.604,58.847 0,73.776 60.022,133.798 133.8,133.798 73.776,0 133.798,-60.022 133.798,-133.798 C 133.798,60.022 73.776,0 0,0" />
        </g>
        <g
           transform="translate(185.0474,520.3263)"
           id="g636">
          <path
             inkscape:connector-curvature="0"
             id="path638"
             style="fill:#1792a4;fill-opacity:1;fill-rule:nonzero;stroke:none"
             d="m 0,0 h -58.34 l 6.495,52.705 h 45.35 z" />
        </g>
        <g
           transform="translate(65.2168,313.9962)"
           id="g640">
          <path
             inkscape:connector-curvature="0"
             id="path642"
             style="fill:#1792a4;fill-opacity:1;fill-rule:nonzero;stroke:none"
             d="m 0,0 c -0.32,0 -0.646,0.043 -0.97,0.134 -1.917,0.534 -3.039,2.522 -2.504,4.439 l 19.91,71.416 c 0.535,1.917 2.521,3.036 4.439,2.503 1.917,-0.533 3.039,-2.522 2.504,-4.439 L 3.47,2.638 C 3.025,1.044 1.577,0 0,0" />
        </g>
        <g
           transform="translate(79.7744,314.3165)"
           id="g644">
          <path
             inkscape:connector-curvature="0"
             id="path646"
             style="fill:#1792a4;fill-opacity:1;fill-rule:nonzero;stroke:none"
             d="m 0,0 c -2.211,-7.93 -10.433,-12.566 -18.362,-10.356 -7.93,2.21 -12.567,10.432 -10.356,18.362 2.21,7.929 10.432,12.566 18.362,10.355 C -2.427,16.151 2.21,7.929 0,0" />
        </g>
        <g
           transform="translate(99.2832,384.297)"
           id="g648">
          <path
             inkscape:connector-curvature="0"
             id="path650"
             style="fill:#1792a4;fill-opacity:1;fill-rule:nonzero;stroke:none"
             d="m 0,0 c 2.21,7.929 -2.427,16.151 -10.356,18.361 -7.929,2.211 -16.152,-2.426 -18.362,-10.355 -2.211,-7.93 2.427,-16.152 10.356,-18.362 C -10.433,-12.566 -2.21,-7.93 0,0" />
        </g>
        <g
           transform="translate(84.6968,385.1124)"
           id="g652">
          <path
             inkscape:connector-curvature="0"
             id="path654"
             style="fill:#1792a4;fill-opacity:1;fill-rule:nonzero;stroke:none"
             d="m 0,0 c -1.713,0 -3.231,1.226 -3.543,2.972 -0.351,1.96 0.954,3.832 2.914,4.181 l 71.674,12.809 c 1.944,0.352 3.832,-0.952 4.182,-2.914 0.35,-1.959 -0.955,-3.832 -2.915,-4.182 L 0.638,0.058 C 0.425,0.019 0.211,0 0,0" />
        </g>
        <g
           transform="translate(153.0181,416.0704)"
           id="g656">
          <path
             inkscape:connector-curvature="0"
             id="path658"
             style="fill:#1792a4;fill-opacity:1;fill-rule:nonzero;stroke:none"
             d="M 0,0 C 8.104,1.448 15.849,-3.948 17.297,-12.052 18.745,-20.155 13.349,-27.9 5.246,-29.349 -2.857,-30.797 -10.603,-25.4 -12.051,-17.297 -13.5,-9.194 -8.103,-1.448 0,0" />
        </g>
        <g
           transform="translate(155.874,395.0382)"
           id="g660">
          <path
             inkscape:connector-curvature="0"
             id="path662"
             style="fill:#1792a4;fill-opacity:1;fill-rule:nonzero;stroke:none"
             d="m 0,0 c -0.728,0 -1.46,0.22 -2.097,0.676 -1.617,1.16 -1.988,3.412 -0.828,5.029 L 49.063,78.19 c 1.162,1.619 3.415,1.989 5.029,0.829 1.618,-1.161 1.989,-3.413 0.828,-5.029 L 2.932,1.504 C 2.228,0.522 1.123,0 0,0" />
        </g>
        <g
           transform="translate(195.3188,479.2106)"
           id="g664">
          <path
             inkscape:connector-curvature="0"
             id="path666"
             style="fill:#1792a4;fill-opacity:1;fill-rule:nonzero;stroke:none"
             d="M 0,0 C 4.797,6.689 14.112,8.223 20.801,3.425 27.49,-1.373 29.023,-10.687 24.226,-17.376 19.429,-24.065 10.114,-25.599 3.425,-20.801 -3.264,-16.003 -4.798,-6.689 0,0" />
        </g>
      </g>
    </g>
  </g>
</svg>
