<?xml version="1.0" encoding="UTF-8" standalone="no"?>
<!-- Created with Inkscape (http://www.inkscape.org/) -->

<svg
   xmlns:dc="http://purl.org/dc/elements/1.1/"
   xmlns:cc="http://creativecommons.org/ns#"
   xmlns:rdf="http://www.w3.org/1999/02/22-rdf-syntax-ns#"
   xmlns:svg="http://www.w3.org/2000/svg"
   xmlns="http://www.w3.org/2000/svg"
   xmlns:sodipodi="http://sodipodi.sourceforge.net/DTD/sodipodi-0.dtd"
   xmlns:inkscape="http://www.inkscape.org/namespaces/inkscape"
   width="150mm"
   height="170mm"
   viewBox="0 0 150 170"
   version="1.1"
   id="svg4904"
   inkscape:version="0.92.4 (f8dce91, 2019-08-02)"
   sodipodi:docname="planear.svg">
  <defs
     id="defs4898">
    <clipPath
       clipPathUnits="userSpaceOnUse"
       id="clipPath1571">
      <path
         d="M 0,841.89 H 595.276 V 0 H 0 Z"
         id="path1569"
         inkscape:connector-curvature="0" />
    </clipPath>
  </defs>
  <sodipodi:namedview
     id="base"
     pagecolor="#ffffff"
     bordercolor="#666666"
     borderopacity="1.0"
     inkscape:pageopacity="0.0"
     inkscape:pageshadow="2"
     inkscape:zoom="0.35"
     inkscape:cx="-110"
     inkscape:cy="560"
     inkscape:document-units="mm"
     inkscape:current-layer="layer1"
     showgrid="false"
     inkscape:window-width="1533"
     inkscape:window-height="845"
     inkscape:window-x="67"
     inkscape:window-y="27"
     inkscape:window-maximized="1" />
  <metadata
     id="metadata4901">
    <rdf:RDF>
      <cc:Work
         rdf:about="">
        <dc:format>image/svg+xml</dc:format>
        <dc:type
           rdf:resource="http://purl.org/dc/dcmitype/StillImage" />
        <dc:title></dc:title>
      </cc:Work>
    </rdf:RDF>
  </metadata>
  <g
     inkscape:label="Capa 1"
     inkscape:groupmode="layer"
     id="layer1"
     transform="translate(0,-127)">
    <g
       transform="matrix(0.35277777,0,0,-0.35277777,-29.858333,361.58925)"
       id="g1565"
       style="fill:#ffffff;fill-opacity:1">
      <g
         id="g1567"
         clip-path="url(#clipPath1571)"
         style="fill:#ffffff;fill-opacity:1">
        <g
           id="g1573"
           transform="translate(340.7568,594.9083)"
           style="fill:#ffffff;fill-opacity:1">
          <path
             d="m 0,0 -8.08,61.05 h -70.079 l -8.08,-61.051 c -93.377,-19.89 -163.635,-102.998 -163.635,-202.217 0,-31.896 7.074,-62.495 21.022,-90.934 4.225,-8.609 14.631,-12.158 23.22,-7.94 8.606,4.222 12.16,14.616 7.941,23.22 -11.599,23.646 -17.478,49.099 -17.478,75.654 0,94.868 77.181,172.05 172.051,172.05 94.87,0 172.05,-77.182 172.05,-172.05 0,-94.87 -77.18,-172.054 -172.05,-172.054 -29.316,0 -58.254,7.5 -83.684,21.685 -8.376,4.662 -18.94,1.666 -23.607,-6.7 -4.667,-8.371 -1.668,-18.941 6.701,-23.608 30.586,-17.062 65.37,-26.082 100.59,-26.082 114.004,0 206.754,92.75 206.754,206.759 C 163.636,-102.998 93.377,-19.89 0,0"
             style="fill:#ffffff;fill-opacity:1;fill-rule:nonzero;stroke:none"
             id="path1575"
             inkscape:connector-curvature="0" />
        </g>
        <g
           id="g1577"
           transform="translate(386.4639,461.0226)"
           style="fill:#ffffff;fill-opacity:1">
          <path
             d="m 0,0 h -11.303 v 3.502 c 0,5.76 -4.669,10.429 -10.428,10.429 h -0.815 c -5.76,0 -10.429,-4.669 -10.429,-10.429 V 0 h -11.671 v 3.502 c 0,5.76 -4.669,10.429 -10.429,10.429 h -0.815 c -5.759,0 -10.428,-4.669 -10.428,-10.429 V 0 H -77.99 v 3.502 c 0,5.76 -4.669,10.429 -10.429,10.429 h -0.814 c -5.76,0 -10.429,-4.669 -10.429,-10.429 V 0 h -11.672 v 3.502 c 0,5.76 -4.669,10.429 -10.429,10.429 h -0.814 c -5.76,0 -10.429,-4.669 -10.429,-10.429 V 0 h -11.672 v 3.502 c 0,5.76 -4.669,10.429 -10.428,10.429 h -0.815 c -5.76,0 -10.429,-4.669 -10.429,-10.429 V 0 h -11.302 v -23.054 h 11.302 v -0.051 c 0,-5.76 4.669,-10.429 10.429,-10.429 h 0.815 c 5.759,0 10.428,4.669 10.428,10.429 v 0.051 h 11.672 v -0.051 c 0,-5.76 4.669,-10.429 10.429,-10.429 h 0.814 c 5.76,0 10.429,4.669 10.429,10.429 v 0.051 h 11.672 v -0.051 c 0,-5.76 4.669,-10.429 10.429,-10.429 h 0.814 c 5.76,0 10.429,4.669 10.429,10.429 v 0.051 h 11.672 v -0.051 c 0,-5.76 4.669,-10.429 10.428,-10.429 h 0.815 c 5.76,0 10.429,4.669 10.429,10.429 v 0.051 h 11.671 v -0.051 c 0,-5.76 4.669,-10.429 10.429,-10.429 h 0.815 c 5.759,0 10.428,4.669 10.428,10.429 v 0.051 H 0 Z"
             style="fill:#ffffff;fill-opacity:1;fill-rule:nonzero;stroke:none"
             id="path1579"
             inkscape:connector-curvature="0" />
        </g>
        <path
           d="m 374.924,378.53 h -20.477 v 22.328 h 20.477 z m 0,-42.078 h -20.477 v 22.329 h 20.477 z M 330.146,378.53 H 309.67 v 22.328 h 20.476 z m 0,-42.078 H 309.67 v 22.329 h 20.476 z m -44.778,42.078 h -20.477 v 22.328 h 20.477 z m 0,-42.078 h -20.477 v 22.329 h 20.477 z M 240.59,378.53 h -20.476 v 22.328 h 20.476 z m 0,-42.078 h -20.476 v 22.329 H 240.59 Z M 208.812,310.423 H 386.464 V 417.557 H 208.812 Z"
           style="fill:#ffffff;fill-opacity:1;fill-rule:nonzero;stroke:none"
           id="path1581"
           inkscape:connector-curvature="0" />
      </g>
    </g>
  </g>
</svg>
