<?xml version="1.0" encoding="UTF-8" standalone="no"?>
<!-- Generator: Adobe Illustrator 19.0.0, SVG Export Plug-In . SVG Version: 6.00 Build 0)  -->

<svg
   xmlns:dc="http://purl.org/dc/elements/1.1/"
   xmlns:cc="http://creativecommons.org/ns#"
   xmlns:rdf="http://www.w3.org/1999/02/22-rdf-syntax-ns#"
   xmlns:svg="http://www.w3.org/2000/svg"
   xmlns="http://www.w3.org/2000/svg"
   xmlns:sodipodi="http://sodipodi.sourceforge.net/DTD/sodipodi-0.dtd"
   xmlns:inkscape="http://www.inkscape.org/namespaces/inkscape"
   version="1.1"
   id="Capa_1"
   x="0px"
   y="0px"
   viewBox="0 0 652 652"
   xml:space="preserve"
   sodipodi:docname="supervisor_account.svg"
   width="652"
   height="652"
   inkscape:version="0.92.4 (f8dce91, 2019-08-02)"><metadata
   id="metadata73"><rdf:RDF><cc:Work
       rdf:about=""><dc:format>image/svg+xml</dc:format><dc:type
         rdf:resource="http://purl.org/dc/dcmitype/StillImage" /><dc:title /></cc:Work></rdf:RDF></metadata><defs
   id="defs71" /><sodipodi:namedview
   pagecolor="#ffffff"
   bordercolor="#666666"
   borderopacity="1"
   objecttolerance="10"
   gridtolerance="10"
   guidetolerance="10"
   inkscape:pageopacity="0"
   inkscape:pageshadow="2"
   inkscape:window-width="1533"
   inkscape:window-height="845"
   id="namedview69"
   showgrid="false"
   inkscape:zoom="0.4609375"
   inkscape:cx="-443.52542"
   inkscape:cy="256"
   inkscape:window-x="67"
   inkscape:window-y="27"
   inkscape:window-maximized="1"
   inkscape:current-layer="Capa_1" />
<g
   id="g6"
   transform="translate(49.898304,64.067797)"
   style="fill:#ffffff">
	<g
   id="g4"
   style="fill:#ffffff">
		<path
   d="m 406,241 c -41.353,0 -75,33.647 -75,75 0,41.353 33.647,75 75,75 41.353,0 75,-33.647 75,-75 0,-41.353 -33.647,-75 -75,-75 z"
   id="path2"
   inkscape:connector-curvature="0"
   style="fill:#ffffff" />
	</g>
</g>
<g
   id="g12"
   transform="translate(49.898304,64.067797)"
   style="fill:#ffffff">
	<g
   id="g10"
   style="fill:#ffffff">
		<path
   d="M 479.251,391 C 460.312,409.499 434.498,421 406,421 377.502,421 351.687,409.499 332.749,391 313.217,410.08 301,436.608 301,466 v 31 c 0,8.291 6.709,15 15,15 h 181 c 8.291,0 15,-6.709 15,-15 v -31 c 0,-29.392 -13.217,-55.92 -32.749,-75 z"
   id="path8"
   inkscape:connector-curvature="0"
   style="fill:#ffffff" />
	</g>
</g>
<g
   id="g18"
   transform="translate(49.898304,64.067797)"
   style="fill:#ffffff">
	<g
   id="g16"
   style="fill:#ffffff">
		<path
   d="M 106,0 C 64.647,0 31,34.647 31,76 c 0,41.353 33.647,75 75,75 41.353,0 75,-33.647 75,-75 C 181,34.647 147.353,0 106,0 Z"
   id="path14"
   inkscape:connector-curvature="0"
   style="fill:#ffffff" />
	</g>
</g>
<g
   id="g24"
   transform="translate(49.898304,64.067797)"
   style="fill:#ffffff">
	<g
   id="g22"
   style="fill:#ffffff">
		<path
   d="M 179.251,151 C 160.312,169.499 134.498,181 106,181 77.502,181 51.687,169.499 32.749,151 13.217,170.08 0,196.608 0,226 v 30 c 0,8.291 6.709,15 15,15 h 181 c 8.291,0 15,-6.709 15,-15 v -30 c 0,-29.392 -12.217,-55.92 -31.749,-75 z"
   id="path20"
   inkscape:connector-curvature="0"
   style="fill:#ffffff" />
	</g>
</g>
<g
   id="g30"
   transform="translate(49.898304,64.067797)"
   style="fill:#ffffff">
	<g
   id="g28"
   style="fill:#ffffff">
		<path
   d="m 256,61 c -15.621,0 -30.95,2.278 -45.919,5.903 0.267,3.047 0.919,5.982 0.919,9.097 0,7.551 -0.883,14.886 -2.404,21.989 C 223.874,93.415 239.81,91 256,91 c 75.688,0 139.473,51.292 158.833,120.894 11.459,0.974 22.513,3.347 32.635,7.72 C 430.359,129.441 351.074,61 256,61 Z"
   id="path26"
   inkscape:connector-curvature="0"
   style="fill:#ffffff" />
	</g>
</g>
<g
   id="g36"
   transform="translate(49.898304,64.067797)"
   style="fill:#ffffff">
	<g
   id="g34"
   style="fill:#ffffff">
		<path
   d="M 256,421 C 180.634,421 117.05,370.15 97.396,301 H 66.451 C 86.847,386.864 163.99,451 256,451 c 5.574,0 11.083,-0.379 16.577,-0.839 1.262,-10.704 3.571,-21.114 7.293,-31.077 C 272.009,420.222 264.073,421 256,421 Z"
   id="path32"
   inkscape:connector-curvature="0"
   style="fill:#ffffff" />
	</g>
</g>
<g
   id="g38"
   transform="translate(0,140)">
</g>
<g
   id="g40"
   transform="translate(0,140)">
</g>
<g
   id="g42"
   transform="translate(0,140)">
</g>
<g
   id="g44"
   transform="translate(0,140)">
</g>
<g
   id="g46"
   transform="translate(0,140)">
</g>
<g
   id="g48"
   transform="translate(0,140)">
</g>
<g
   id="g50"
   transform="translate(0,140)">
</g>
<g
   id="g52"
   transform="translate(0,140)">
</g>
<g
   id="g54"
   transform="translate(0,140)">
</g>
<g
   id="g56"
   transform="translate(0,140)">
</g>
<g
   id="g58"
   transform="translate(0,140)">
</g>
<g
   id="g60"
   transform="translate(0,140)">
</g>
<g
   id="g62"
   transform="translate(0,140)">
</g>
<g
   id="g64"
   transform="translate(0,140)">
</g>
<g
   id="g66"
   transform="translate(0,140)">
</g>
</svg>