<svg xmlns="http://www.w3.org/2000/svg" width="40" height="51" viewBox="0 0 40 51">
    <g fill="#FFF" fill-rule="nonzero">
        <path d="M35.086 4.781h-8.918l-1.687-2.42a.83.83 0 0 0-.68-.361h-7.65a.83.83 0 0 0-.681.36l-1.687 2.421H4.865a.851.851 0 0 0-.839.864v38.45c0 .478.376.864.839.864h30.221a.851.851 0 0 0 .839-.863V5.646a.851.851 0 0 0-.839-.865zM16.581 3.728h6.79l2.672 3.835H13.908l2.673-3.835zm17.667 39.503H5.703V6.51h6.875l-.985 1.415a.885.885 0 0 0-.065.897c.143.289.431.47.745.47h15.404a.836.836 0 0 0 .746-.47.885.885 0 0 0-.065-.897l-.986-1.415h6.876v36.722z"/>
        <path d="M19.975 14.934c-5.316 0-9.64 4.458-9.64 9.936 0 5.48 4.324 9.937 9.64 9.937 5.317 0 9.641-4.458 9.641-9.937 0-5.478-4.324-9.936-9.64-9.936zm0 18.145c-4.39 0-7.964-3.682-7.964-8.209 0-4.526 3.573-8.208 7.964-8.208 4.392 0 7.964 3.682 7.964 8.208 0 4.527-3.572 8.209-7.964 8.209z"/>
        <path d="M23.337 21.486l-4.79 4.937-1.933-1.993a.82.82 0 0 0-1.186 0 .883.883 0 0 0 0 1.222l2.527 2.604a.823.823 0 0 0 1.185 0l5.383-5.548a.882.882 0 0 0 0-1.222.82.82 0 0 0-1.186 0z"/>
    </g>
</svg>
