<svg xmlns="http://www.w3.org/2000/svg" width="40" height="44" viewBox="0 0 40 44">
    <g fill="#FFF" fill-rule="nonzero">
        <path d="M4.091 21.754c0 8.861 7.132 16.061 15.909 16.061 8.777 0 15.909-7.2 15.909-16.061 0-4.4-1.768-8.43-4.633-11.323l1.25-1.262.579.585c.244.246.548.37.884.37.335 0 .64-.124.883-.37a1.271 1.271 0 0 0 0-1.785l-2.895-2.923a1.242 1.242 0 0 0-1.767 0 1.271 1.271 0 0 0 0 1.785l.579.584L29.417 8.8a15.652 15.652 0 0 0-8.137-3.046V4.677h2.773c.701 0 1.25-.554 1.25-1.262 0-.707-.549-1.261-1.25-1.261h-8.228c-.701 0-1.25.554-1.25 1.261 0 .708.549 1.262 1.25 1.262h2.956v1.077c-8.229.646-14.69 7.57-14.69 16zM20 8.215c7.406 0 13.44 6.093 13.44 13.57S27.406 35.354 20 35.354 6.56 29.262 6.56 21.784c0-7.507 6.034-13.569 13.44-13.569z"/>
        <path d="M20 22.8h5.333c.701 0 1.25-.554 1.25-1.262 0-.707-.549-1.261-1.25-1.261H21.25v-6.492c0-.708-.549-1.262-1.25-1.262s-1.25.554-1.25 1.262v7.784c0 .677.549 1.231 1.25 1.231z"/>
    </g>
</svg>
