<svg xmlns="http://www.w3.org/2000/svg" width="105" height="117" viewBox="0 0 105 117">
    <g fill="#50D2CE" fill-rule="nonzero">
        <path d="M.3 64.2c0 28.8 23.4 52.2 52.2 52.2 28.8 0 52.2-23.4 52.2-52.2 0-14.3-5.8-27.4-15.2-36.8l4.1-4.1 1.9 1.9c.8.8 1.8 1.2 2.9 1.2 1.1 0 2.1-.4 2.9-1.2 1.6-1.6 1.6-4.2 0-5.8l-9.5-9.5c-1.6-1.6-4.2-1.6-5.8 0-1.6 1.6-1.6 4.2 0 5.8l1.9 1.9-4.5 4.5c-7.6-5.6-16.7-9.1-26.7-9.9V8.7h9.1c2.3 0 4.1-1.8 4.1-4.1S68.1.5 65.8.5h-27c-2.3 0-4.1 1.8-4.1 4.1s1.8 4.1 4.1 4.1h9.7v3.5C21.5 14.3.3 36.8.3 64.2zm52.2-44c24.3 0 44.1 19.8 44.1 44.1s-19.8 44.1-44.1 44.1S8.4 88.6 8.4 64.3c0-24.4 19.8-44.1 44.1-44.1z"/>
        <path d="M52.5 67.6H70c2.3 0 4.1-1.8 4.1-4.1s-1.8-4.1-4.1-4.1H56.6V38.3c0-2.3-1.8-4.1-4.1-4.1s-4.1 1.8-4.1 4.1v25.3c0 2.2 1.8 4 4.1 4z"/>
    </g>
</svg>
